<?xml version="1.0" encoding="UTF-8"?>
<svg xmlns="http://www.w3.org/2000/svg" xmlns:xlink="http://www.w3.org/1999/xlink" width="24pt" height="24pt" viewBox="0 0 24 24" version="1.1">
<g id="surface1">
<path style=" stroke:none;fill-rule:nonzero;fill:rgb(100%,100%,100%);fill-opacity:1;" d="M 20.007812 12.003906 C 20.007812 16.425781 16.425781 20.007812 12.003906 20.007812 C 7.585938 20.007812 4 16.425781 4 12.003906 C 4 7.585938 7.585938 4 12.003906 4 C 16.425781 4 20.007812 7.585938 20.007812 12.003906 Z M 20.007812 12.003906 "/>
<path style=" stroke:none;fill-rule:nonzero;fill:rgb(91.372549%,32.941176%,12.54902%);fill-opacity:1;" d="M 7.851562 12.003906 C 7.851562 12.574219 7.390625 13.035156 6.824219 13.035156 C 6.253906 13.035156 5.792969 12.574219 5.792969 12.003906 C 5.792969 11.4375 6.253906 10.976562 6.824219 10.976562 C 7.390625 10.976562 7.851562 11.4375 7.851562 12.003906 Z M 13.707031 17.007812 C 13.992188 17.5 14.621094 17.667969 15.113281 17.386719 C 15.605469 17.101562 15.773438 16.472656 15.488281 15.980469 C 15.203125 15.488281 14.574219 15.320312 14.082031 15.605469 C 13.589844 15.886719 13.421875 16.515625 13.707031 17.007812 Z M 15.488281 8.03125 C 15.773438 7.539062 15.605469 6.910156 15.113281 6.625 C 14.621094 6.339844 13.992188 6.511719 13.707031 7.003906 C 13.421875 7.496094 13.589844 8.125 14.082031 8.40625 C 14.574219 8.691406 15.203125 8.523438 15.488281 8.03125 Z M 12.003906 9.070312 C 13.539062 9.070312 14.796875 10.246094 14.929688 11.746094 L 16.417969 11.722656 C 16.347656 10.609375 15.863281 9.605469 15.121094 8.867188 C 14.726562 9.019531 14.269531 9 13.875 8.769531 C 13.476562 8.542969 13.230469 8.15625 13.167969 7.738281 C 12.796875 7.636719 12.40625 7.585938 12.003906 7.585938 C 11.300781 7.585938 10.636719 7.75 10.042969 8.042969 L 10.769531 9.34375 C 11.144531 9.167969 11.5625 9.070312 12.003906 9.070312 Z M 9.070312 12.003906 C 9.070312 11.011719 9.5625 10.136719 10.320312 9.605469 L 9.554688 8.324219 C 8.667969 8.917969 8.007812 9.820312 7.730469 10.878906 C 8.058594 11.144531 8.269531 11.550781 8.269531 12.003906 C 8.269531 12.460938 8.058594 12.867188 7.730469 13.132812 C 8.007812 14.191406 8.667969 15.09375 9.554688 15.683594 L 10.320312 14.40625 C 9.5625 13.875 9.070312 13 9.070312 12.003906 Z M 12.003906 14.941406 C 11.5625 14.941406 11.144531 14.84375 10.769531 14.667969 L 10.042969 15.96875 C 10.636719 16.261719 11.300781 16.425781 12.003906 16.425781 C 12.40625 16.425781 12.796875 16.371094 13.167969 16.273438 C 13.230469 15.855469 13.476562 15.46875 13.875 15.242188 C 14.269531 15.011719 14.726562 14.992188 15.121094 15.144531 C 15.863281 14.40625 16.347656 13.402344 16.417969 12.289062 L 14.929688 12.265625 C 14.796875 13.765625 13.539062 14.941406 12.003906 14.941406 Z M 12.003906 14.941406 "/>
</g>
</svg>
